<svg id="Lager_1" data-name="Lager 1" xmlns="http://www.w3.org/2000/svg" viewBox="0 0 408.37 184.62"><defs><style>.cls-1{fill:#fff;}.cls-2{fill:#b2b2b2;}.cls-3{fill:#2e8bb7;}.cls-4{fill:#f7a941;}.cls-5{fill:#00528c;}</style></defs><path class="cls-1" d="M127,44.35v95.13c0,10.14-1.59,13.52-4.17,15.7-4,3.36-12.34,5.16-23.69,6.82-11.63,1.71-20.16,4.4-25.36,8l-.26.19-.26-.19c-5.2-3.61-13.73-6.3-25.36-8-11.35-1.66-19.72-3.46-23.7-6.82C21.6,153,20,149.62,20,139.48V44.35H127"/><path class="cls-2" d="M125,47.46V139c0,9.75-1.53,13-4,15.09-3.82,3.24-11.88,5-22.79,6.57-11.19,1.64-19.39,4.23-24.39,7.71l-.25.17-.26-.17c-5-3.48-13.2-6.07-24.39-7.71C38,159,30,157.3,26.15,154.06c-2.47-2.09-4-5.34-4-15.09V47.46H125m5.81-5.8H16.34V139c0,19.37,5.58,23.56,31.76,27.4,24.5,3.6,25.46,10.55,25.48,11.43h0c0-.88,1-7.83,25.48-11.43,26.18-3.84,31.77-8,31.77-27.4V41.66Z"/><path class="cls-3" d="M112.45,127a9.14,9.14,0,0,0-2.55-2,9.2,9.2,0,0,0,2-2.24,9.3,9.3,0,0,0,.77-8.15,13.29,13.29,0,0,0-5.42-6.67l-.05,0,0,0c-5.53-3.55-12.45-2.69-15.42,1.93a8.8,8.8,0,0,0-1.35,5.91L76.22,99.38,88.05,89.3a8.77,8.77,0,0,0,.48,6c1.55,3.45,5.23,5.42,9.33,5.42a13.64,13.64,0,0,0,5.62-1.24l.06,0h0a13.26,13.26,0,0,0,6.34-5.8,9.32,9.32,0,0,0,.44-8.18,9.12,9.12,0,0,0-1.81-2.65,9.3,9.3,0,0,0,2.84-1.64c4.18-3.56,4.11-10.52-.15-15.53,0,0,0,0,0,0l0,0c-4.27-5-11.13-6.18-15.31-2.62A9,9,0,0,0,93.8,65.5a9.39,9.39,0,0,0-2.22-2.06c-4.58-3-11.25-1-14.87,4.47l0,.06,0,0a13.31,13.31,0,0,0-2.26,8.29,9.31,9.31,0,0,0,4,7.14,9,9,0,0,0,4.87,1.5,7.28,7.28,0,0,0,1-.08L72.4,95l-21-24.08A2.89,2.89,0,0,0,48.57,70a3.11,3.11,0,1,0-2.11,2A2.86,2.86,0,0,0,47,74.73l.49.57-7,.85L29.9,85.46l6.2,7.12,5.61-4.88L39.35,85l2.27-2L44,85.72,47.12,83l2,2.27L46,88l2.37,2.73-2.27,2L43.68,90l-5.6,4.88,6.09,7,10.68-9.3,1.79-6.78L68,98.77,39.1,123.37a2.89,2.89,0,0,0-.93,2.84,3.16,3.16,0,0,0-1.06-.2,3.09,3.09,0,1,0,3.09,3.08,3.17,3.17,0,0,0-.11-.76,3,3,0,0,0,.9.15,2.88,2.88,0,0,0,1.88-.69l.57-.48.77,7,9.19,10.78,7.19-6.13-4.82-5.65L53,135.6l-2-2.3L53.82,131l-2.71-3.18,2.3-2,2.7,3.17,2.76-2.34,2,2.29-2.75,2.35L62.88,137l7.05-6-9.18-10.79L54,118.31,71.8,103.14,86,119.48a8.89,8.89,0,0,0-6,.54c-5,2.31-6.78,9-4,15l0,0s0,0,0,.06a13.3,13.3,0,0,0,5.87,6.28,10,10,0,0,0,4.55,1.14,8.54,8.54,0,0,0,3.63-.79,9.55,9.55,0,0,0,2.63-1.84,8.87,8.87,0,0,0,8.7,5.83,13.08,13.08,0,0,0,8.5-3.34.08.08,0,0,0,0,0l.05,0C115,138,116.06,131.14,112.45,127ZM81.6,78.59a3.6,3.6,0,0,1-1.42-2.76A7.55,7.55,0,0,1,81.5,71.2l0,0s0,0,0,0c1.82-2.77,5-4.06,6.83-2.83.42.28,1.74,1.28,1.11,2.59a2.89,2.89,0,0,0,1.36,3.87,2.79,2.79,0,0,0,1.25.29,2.89,2.89,0,0,0,2.34-1.23,2.87,2.87,0,0,0,2,.76,2.9,2.9,0,0,0,2.44-4.47c-.79-1.22.4-2.38.78-2.7,1.71-1.46,5-.56,7.13,2,0,0,0,0,0,0l0,0c2.15,2.52,2.52,5.89.81,7.34-.39.33-1.72,1.32-2.79.35A2.9,2.9,0,0,0,100.57,81a2.9,2.9,0,0,0,2.14,5.37c1.38-.42,2.16,1,2.37,1.51A3.63,3.63,0,0,1,104.8,91a7.57,7.57,0,0,1-3.6,3.2l0,0-.05,0c-3,1.36-6.36.77-7.28-1.27-.21-.46-.78-2,.45-2.78a2.89,2.89,0,0,0-1.69-5.35,2.89,2.89,0,0,0-3.16-3.7,2.89,2.89,0,0,0-5-2.53C83.46,79.69,82,78.87,81.6,78.59Zm17.17,60.34c-.33-.38-1.33-1.7-.38-2.79a2.9,2.9,0,0,0-3.92-4.24,2.9,2.9,0,0,0-5.34,2.2c.43,1.38-1,2.18-1.48,2.39a3.63,3.63,0,0,1-3.1-.25,7.52,7.52,0,0,1-3.24-3.55l0-.05,0,0c-1.39-3-.85-6.35,1.19-7.3.46-.21,2-.8,2.79.42A2.89,2.89,0,0,0,90.57,124a2.73,2.73,0,0,0,.8.13,2.93,2.93,0,0,0,1.9-.71,2.89,2.89,0,0,0,1-2.6,3,3,0,0,0,.59.06,2.9,2.9,0,0,0,1.88-5.11c-1.11-.94-.31-2.39,0-2.81,1.21-1.9,4.6-2,7.39-.19l0,0,0,0a7.55,7.55,0,0,1,3.08,3.71,3.59,3.59,0,0,1-.18,3.09c-.27.43-1.25,1.76-2.57,1.14a2.9,2.9,0,0,0-2.88,5,2.9,2.9,0,0,0,3.77,4.33c1.21-.8,2.38.38,2.71.76,1.48,1.69.61,5-1.89,7.14l0,0,0,0C103.61,140.22,100.25,140.62,98.77,138.93Z"/><rect class="cls-4" x="33.68" y="25.8" width="12.19" height="5.51"/><rect class="cls-4" x="48.68" y="25.8" width="12.19" height="5.51"/><rect class="cls-4" x="41.68" y="33.62" width="11.2" height="5.51"/><polygon class="cls-4" points="29.24 39.08 29.24 39.12 38.97 39.12 38.97 33.61 33.71 33.61 29.24 39.08"/><polygon class="cls-4" points="55.58 33.61 55.58 39.12 65.31 39.12 65.31 39.08 60.84 33.61 55.58 33.61"/><path class="cls-4" d="M28.33,9.54v3.79H23.64V9.54H18.39v3.79H13.7V9.54H8.46V21.82h2.59v11l5.33,6.33h9.27L31,32.8v-11h2.59V9.54ZM23,32.79H19V24h4Z"/><path class="cls-4" d="M83.54,21.82h2.59V9.54H80.89v3.79H76.2V9.54H71v3.79H66.26V9.54H61V21.82h2.59v11l5.33,6.33h9.27l5.33-6.33Zm-8,11h-4V24h4Z"/><rect class="cls-4" x="101.29" y="25.8" width="12.19" height="5.51"/><rect class="cls-4" x="86.3" y="25.8" width="12.19" height="5.51"/><rect class="cls-4" x="94.29" y="33.62" width="11.2" height="5.51"/><polygon class="cls-4" points="108.2 33.61 108.2 39.12 117.93 39.12 117.93 39.08 113.46 33.61 108.2 33.61"/><polygon class="cls-4" points="81.86 39.08 81.86 39.12 91.59 39.12 91.59 33.61 86.32 33.61 81.86 39.08"/><path class="cls-4" d="M138.71,9.54h-5.25v3.79h-4.69V9.54h-5.24v3.79h-4.69V9.54h-5.25V21.82h2.6v11l5.32,6.33h9.28l5.33-6.33v-11h2.59ZM128.14,32.79h-4V24h4Z"/><path class="cls-5" d="M187.15,82.71v-20H195V82.61c0,6.08,3.45,8.16,7.15,8.16,3.55,0,7.15-2.18,7.15-8.16V62.73H217v20c0,10.09-7.25,15-14.91,15S187.15,92.8,187.15,82.71Z"/><polygon class="cls-5" points="276.89 90.32 263.81 90.32 263.81 83.12 274.48 83.12 274.48 76.63 263.81 76.63 263.81 69.63 276.89 69.63 276.89 62.73 256.01 62.73 256.01 97.22 276.89 97.22 276.89 90.32"/><path class="cls-5" d="M307.42,90.62H294.49l-2.69,6.59h-8.21l15.72-34.74h3.09l15.83,34.74h-8.12Zm-12.48-36.2a5.89,5.89,0,1,1,5.89,5.73A5.73,5.73,0,0,1,294.94,54.42Zm9.85,29.81L301,75h-.2l-3.75,9.23Zm-6.45-29.8A2.49,2.49,0,1,0,300.83,52,2.36,2.36,0,0,0,298.34,54.43Z"/><polygon class="cls-5" points="179.87 90.32 167.8 90.32 167.8 62.73 159.99 62.73 159.99 97.22 179.87 97.22 179.87 90.32"/><polygon class="cls-5" points="246.96 90.32 234.89 90.32 234.89 62.73 227.09 62.73 227.09 97.22 246.96 97.22 246.96 90.32"/><path class="cls-5" d="M171.71,127.58l-3.91,4.47v10.59H160V108.16h7.81v14.2l11.77-14.2H189L176.83,122.1l13,20.54H181Z"/><path class="cls-5" d="M193.21,125.4c0-10.45,8-17.75,18-17.75s17.9,7.3,17.9,17.75-8,17.75-17.9,17.75S193.21,135.9,193.21,125.4Zm27.75,0c0-6.74-4.52-10.75-9.79-10.75s-9.84,4-9.84,10.75,4.56,10.75,9.84,10.75S221,132.15,221,125.4Z"/><path class="cls-5" d="M272.45,107.85v34.79h-7.76V123.47l-9,10.05H254.6l-9.28-10v19.11h-7.66V107.85h3.25l14.4,15.73h.05l13.85-15.73Z"/><path class="cls-5" d="M318.35,107.85v34.79h-7.76V123.47l-9,10.05H300.5l-9.28-10v19.11h-7.66V107.85h3.25l14.4,15.73h.05l13.84-15.73Z"/><path class="cls-5" d="M328.65,128.14v-20h7.81V128c0,6.08,3.45,8.16,7.15,8.16s7.15-2.18,7.15-8.16V108.16h7.76v20c0,10.09-7.25,15-14.91,15S328.65,138.23,328.65,128.14Z"/><path class="cls-5" d="M376.53,122.71h-.1l.1,19.93h-7.71V107.85h3.25l19.78,19.58h.1l-.1-19.27h7.65V142.9h-2.89Z"/></svg>